<svg width="716" height="465" viewBox="0 0 716 465" fill="none" xmlns="http://www.w3.org/2000/svg">
<path d="M505.198 360.559H429.427V163.404L429.757 163.447L505.198 173.075V360.559ZM430.007 360.025H504.617V173.54L430.007 164.019V360.025Z" fill="#93B4F6"/>
<path d="M497.858 191.294H436.238V182.836H497.858V191.294ZM436.818 190.759H497.278V183.37H436.818V190.759Z" fill="#93B4F6"/>
<path d="M497.858 209.253H436.238V200.795H497.858V209.253ZM436.818 208.718H497.278V201.329H436.818V208.718Z" fill="#93B4F6"/>
<path d="M497.858 227.215H436.238V218.758H497.858V227.215ZM436.818 226.681H497.278V219.292H436.818V226.681Z" fill="#93B4F6"/>
<path d="M497.859 245.176H436.238V236.719H497.859V245.176ZM436.818 244.642H497.278V237.253H436.818V244.642Z" fill="#93B4F6"/>
<path d="M497.859 263.139H436.238V254.682H497.859V263.139ZM436.818 262.605H497.278V255.216H436.818V262.605Z" fill="#93B4F6"/>
<path d="M497.859 281.1H436.238V272.643H497.859V281.1ZM436.818 280.566H497.278V273.177H436.818V280.566Z" fill="#93B4F6"/>
<path d="M497.859 299.059H436.238V290.602H497.859V299.059ZM436.818 298.525H497.278V291.136H436.818V298.525Z" fill="#93B4F6"/>
<path d="M497.858 317.02H436.238V308.562H497.858V317.02ZM436.818 316.486H497.278V309.097H436.818V316.486Z" fill="#93B4F6"/>
<path d="M497.858 334.985H436.238V326.527H497.858V334.985ZM436.818 334.451H497.278V327.062H436.818V334.451Z" fill="#93B4F6"/>
<path d="M430.007 360.56H407.536V200.799H430.007V360.56ZM408.117 360.025H429.427V201.333H408.117V360.025Z" fill="#93B4F6"/>
<path d="M407.943 360.56H385.473V200.799H407.943V360.56ZM386.053 360.025H407.363V201.333H386.053V360.025Z" fill="#93B4F6"/>
<path d="M386.007 360.56H363.536V200.799H386.007V360.56ZM364.117 360.025H385.426V201.333H364.117V360.025Z" fill="#93B4F6"/>
<path d="M364.07 360.56H341.6V200.799H364.07V360.56ZM342.18 360.025H363.49V201.333H342.18V360.025Z" fill="#93B4F6"/>
<path d="M418.125 201.314H354.48V190.682H418.119V201.314H418.125ZM355.06 200.78H417.539V191.216H355.06V200.78Z" fill="#93B4F6"/>
<path d="M392.533 191.209H379.16V119.979H392.533V191.209ZM379.741 190.675H391.953V120.513H379.741V190.675Z" fill="#93B4F6"/>
<path d="M342.267 360.384H261.257V73.3145H342.261V360.384H342.267ZM261.837 359.849H341.681V73.8487H261.837V359.849Z" fill="#93B4F6"/>
<path d="M342.267 137.343H321.578V124.184H342.267V137.343ZM322.158 136.809H341.687V124.718H322.158V136.809Z" fill="#93B4F6"/>
<path d="M322.158 137.343H301.469V124.184H322.158V137.343ZM302.055 136.809H321.584V124.718H302.055V136.809Z" fill="#93B4F6"/>
<path d="M302.055 137.343H281.366V124.184H302.055V137.343ZM281.946 136.809H301.475V124.718H281.946V136.809Z" fill="#93B4F6"/>
<path d="M281.946 137.343H261.257V124.184H281.946V137.343ZM261.837 136.809H281.366V124.718H261.837V136.809Z" fill="#93B4F6"/>
<path d="M342.267 162.821H321.578V149.662H342.267V162.821ZM322.158 162.287H341.687V150.196H322.158V162.287Z" fill="#93B4F6"/>
<path d="M322.158 162.821H301.469V149.662H322.158V162.821ZM302.055 162.287H321.584V150.196H302.055V162.287Z" fill="#93B4F6"/>
<path d="M302.055 162.821H281.366V149.662H302.055V162.821ZM281.946 162.287H301.475V150.196H281.946V162.287Z" fill="#93B4F6"/>
<path d="M281.946 162.821H261.257V149.662H281.946V162.821ZM261.837 162.287H281.366V150.196H261.837V162.287Z" fill="#93B4F6"/>
<path d="M342.267 188.302H321.578V175.143H342.267V188.302ZM322.158 187.768H341.687V175.677H322.158V187.768Z" fill="#93B4F6"/>
<path d="M322.158 188.302H301.469V175.143H322.158V188.302ZM302.055 187.768H321.584V175.677H302.055V187.768Z" fill="#93B4F6"/>
<path d="M302.055 188.302H281.366V175.143H302.055V188.302ZM281.946 187.768H301.475V175.677H281.946V187.768Z" fill="#93B4F6"/>
<path d="M281.946 188.302H261.257V175.143H281.946V188.302ZM261.837 187.768H281.366V175.677H261.837V187.768Z" fill="#93B4F6"/>
<path d="M342.267 213.782H321.578V200.623H342.267V213.782ZM322.158 213.248H341.687V201.157H322.158V213.248Z" fill="#93B4F6"/>
<path d="M322.158 213.782H301.469V200.623H322.158V213.782ZM302.055 213.248H321.584V201.157H302.055V213.248Z" fill="#93B4F6"/>
<path d="M302.055 213.782H281.366V200.623H302.055V213.782ZM281.946 213.248H301.475V201.157H281.946V213.248Z" fill="#93B4F6"/>
<path d="M281.946 213.782H261.257V200.623H281.946V213.782ZM261.837 213.248H281.366V201.157H261.837V213.248Z" fill="#93B4F6"/>
<path d="M342.267 264.743H321.578V251.584H342.267V264.743ZM322.158 264.209H341.687V252.118H322.158V264.209Z" fill="#93B4F6"/>
<path d="M322.158 264.743H301.469V251.584H322.158V264.743ZM302.055 264.209H321.584V252.118H302.055V264.209Z" fill="#93B4F6"/>
<path d="M302.055 264.743H281.366V251.584H302.055V264.743ZM281.946 264.209H301.475V252.118H281.946V264.209Z" fill="#93B4F6"/>
<path d="M281.946 264.743H261.257V251.584H281.946V264.743ZM261.837 264.209H281.366V252.118H261.837V264.209Z" fill="#93B4F6"/>
<path d="M342.267 290.222H321.578V277.062H342.267V290.222ZM322.158 289.688H341.687V277.597H322.158V289.688Z" fill="#93B4F6"/>
<path d="M322.158 290.222H301.469V277.062H322.158V290.222ZM302.055 289.688H321.584V277.597H302.055V289.688Z" fill="#93B4F6"/>
<path d="M302.055 290.222H281.366V277.062H302.055V290.222ZM281.946 289.688H301.475V277.597H281.946V289.688Z" fill="#93B4F6"/>
<path d="M281.946 290.222H261.257V277.062H281.946V290.222ZM261.837 289.688H281.366V277.597H261.837V289.688Z" fill="#93B4F6"/>
<path d="M333.048 104.581H325.181V73.3145H333.048V104.581ZM325.761 104.046H332.468V73.8487H325.761V104.046Z" fill="#93B4F6"/>
<path d="M314.575 104.581H306.702V73.3145H314.575V104.581ZM307.283 104.046H313.995V73.8487H307.283V104.046Z" fill="#93B4F6"/>
<path d="M296.103 104.581H288.235V73.3145H296.103V104.581ZM288.81 104.046H295.517V73.8487H288.81V104.046Z" fill="#93B4F6"/>
<path d="M277.624 104.581H269.757V73.3145H277.624V104.581ZM270.337 104.046H277.044V73.8487H270.337V104.046Z" fill="#93B4F6"/>
<path d="M657.377 360.56H504.629V297.093L504.803 297.024L581.009 265.592L581.125 265.64L657.383 297.093V360.56H657.377ZM505.209 360.026H656.797V297.435L581.003 266.169L505.209 297.435V360.026Z" fill="#93B4F6"/>
<path d="M648.431 303.376L581.003 275.561L515.449 302.601L515.211 302.115L581.003 274.979L581.119 275.027L648.669 302.889L648.431 303.376Z" fill="#93B4F6"/>
<path d="M616.852 354.562H545.148V348.027H616.852V354.562ZM545.729 354.027H616.272V348.562H545.729V354.027Z" fill="#93B4F6"/>
<path d="M627.138 360.56H534.867V354.025H627.138V360.56ZM535.448 360.025H626.558V354.56H535.448V360.025Z" fill="#93B4F6"/>
<path d="M645.832 342.069H631.629V328.99H645.832V342.069ZM632.204 341.535H645.246V329.525H632.204V341.535Z" fill="#93B4F6"/>
<path d="M623.153 342.069H608.95V328.99H623.153V342.069ZM609.53 341.535H622.573V329.525H609.53V341.535Z" fill="#93B4F6"/>
<path d="M555.116 342.069H540.913V328.99H555.116V342.069ZM541.493 341.535H554.536V329.525H541.493V341.535Z" fill="#93B4F6"/>
<path d="M532.437 342.069H518.234V328.99H532.437V342.069ZM518.814 341.535H531.857V329.525H518.814V341.535Z" fill="#93B4F6"/>
<path d="M645.832 321.066H631.629V307.986H645.832V321.066ZM632.204 320.531H645.246V308.521H632.204V320.531Z" fill="#93B4F6"/>
<path d="M623.153 321.066H608.95V307.986H623.153V321.066ZM609.53 320.531H622.573V308.521H609.53V320.531Z" fill="#93B4F6"/>
<path d="M600.474 321.066H586.271V307.986H600.474V321.066ZM586.851 320.531H599.894V308.521H586.851V320.531Z" fill="#93B4F6"/>
<path d="M577.795 321.066H563.592V307.986H577.795V321.066ZM564.172 320.531H577.215V308.521H564.172V320.531Z" fill="#93B4F6"/>
<path d="M555.116 321.066H540.913V307.986H555.116V321.066ZM541.493 320.531H554.536V308.521H541.493V320.531Z" fill="#93B4F6"/>
<path d="M532.437 321.066H518.234V307.986H532.437V321.066ZM518.814 320.531H531.857V308.521H518.814V320.531Z" fill="#93B4F6"/>
<path d="M602.458 348.556H562.443V328.99H602.458V348.556ZM563.024 348.021H601.878V329.525H563.024V348.021Z" fill="#93B4F6"/>
<path d="M582.738 329.256H582.158V348.287H582.738V329.256Z" fill="#93B4F6"/>
<path d="M261.837 360.558H178.971V244.641H261.837V360.558ZM179.551 360.024H261.257V245.175H179.551V360.024Z" fill="#93B4F6"/>
<path d="M254.33 257.893H185.742V258.427H254.33V257.893Z" fill="#93B4F6"/>
<path d="M254.33 270.604H185.742V271.138H254.33V270.604Z" fill="#93B4F6"/>
<path d="M254.33 283.314H185.742V283.849H254.33V283.314Z" fill="#93B4F6"/>
<path d="M254.33 296.023H185.742V296.558H254.33V296.023Z" fill="#93B4F6"/>
<path d="M254.33 308.736H185.742V309.271H254.33V308.736Z" fill="#93B4F6"/>
<path d="M254.33 321.445H185.742V321.98H254.33V321.445Z" fill="#93B4F6"/>
<path d="M254.33 334.15H185.742V334.685H254.33V334.15Z" fill="#93B4F6"/>
<path d="M179.551 360.562H105.155V233.536H142.617V196.783H204.087V245.184H179.551V360.562ZM105.736 360.027H178.971V244.644H203.507V197.312H143.197V234.065H105.736V360.027Z" fill="#93B4F6"/>
<path d="M171.249 225.558H158.236V208.135H171.249V225.558ZM158.816 225.023H170.669V208.669H158.816V225.023Z" fill="#93B4F6"/>
<path d="M195.007 225.558H181.994V208.135H195.007V225.558ZM182.574 225.023H194.427V208.669H182.574V225.023Z" fill="#93B4F6"/>
<path d="M171.249 266.874H158.236V249.445H171.249V266.874ZM158.816 266.339H170.669V249.98H158.816V266.339Z" fill="#93B4F6"/>
<path d="M171.249 308.19H158.236V290.762H171.249V308.19ZM158.816 307.656H170.669V291.296H158.816V307.656Z" fill="#93B4F6"/>
<path d="M148.86 266.874H135.847V249.445H148.86V266.874ZM136.427 266.339H148.28V249.98H136.427V266.339Z" fill="#93B4F6"/>
<path d="M148.86 308.19H135.847V290.762H148.86V308.19ZM136.427 307.656H148.28V291.296H136.427V307.656Z" fill="#93B4F6"/>
<path d="M126.018 266.874H113.005V249.445H126.018V266.874ZM113.585 266.339H125.438V249.98H113.585V266.339Z" fill="#93B4F6"/>
<path d="M126.018 308.19H113.005V290.762H126.018V308.19ZM113.585 307.656H125.438V291.296H113.585V307.656Z" fill="#93B4F6"/>
<path d="M105.736 360.56H29.0306V277.062H105.736V360.56ZM29.6108 360.026H105.155V277.597H29.6108V360.026Z" fill="#93B4F6"/>
<path d="M83.5207 299.239H29.0306V290.258H83.5207V299.239ZM29.6108 298.705H82.9405V290.792H29.6108V298.705Z" fill="#93B4F6"/>
<path d="M83.5207 321.471H29.0306V312.49H83.5207V321.471ZM29.6108 320.937H82.9405V313.025H29.6108V320.937Z" fill="#93B4F6"/>
<path d="M83.5207 343.704H29.0306V334.723H83.5207V343.704ZM29.6108 343.17H82.9405V335.257H29.6108V343.17Z" fill="#93B4F6"/>
<path d="M504.629 297.674V186.795H600.474V274.203L581.003 266.173L504.629 297.674ZM505.209 187.329V296.851L581.003 265.585L581.119 265.633L599.894 273.375V187.329H505.209Z" fill="#93B4F6"/>
<path d="M600.184 202.146H558.493V202.681H600.184V202.146Z" fill="#93B4F6"/>
<path d="M600.184 214.562H558.493V215.097H600.184V214.562Z" fill="#93B4F6"/>
<path d="M600.184 226.979H558.493V227.513H600.184V226.979Z" fill="#93B4F6"/>
<path d="M600.184 239.396H558.493V239.931H600.184V239.396Z" fill="#93B4F6"/>
<path d="M600.184 251.812H558.493V252.347H600.184V251.812Z" fill="#93B4F6"/>
<path d="M532.147 202.146H504.49V202.681H532.147V202.146Z" fill="#93B4F6"/>
<path d="M532.147 214.562H504.49V215.097H532.147V214.562Z" fill="#93B4F6"/>
<path d="M532.147 226.979H504.49V227.513H532.147V226.979Z" fill="#93B4F6"/>
<path d="M532.147 239.396H504.49V239.931H532.147V239.396Z" fill="#93B4F6"/>
<path d="M532.147 251.812H504.49V252.347H532.147V251.812Z" fill="#93B4F6"/>
<path d="M566.818 396.693H118.766V397.228H566.818V396.693Z" fill="#93B4F6"/>
<path d="M559.647 410.451H111.595V410.985H559.647V410.451Z" fill="#93B4F6"/>
<path d="M344.768 137.229C338.711 132.875 334.302 127.655 331.685 124.065C330.142 121.944 328.9 119.651 327.925 117.263C325.21 110.574 318.358 93.2206 300.849 99.8831C282.48 106.871 292.575 126.191 297.159 137.096C299.7 143.149 304.997 144.319 312.232 141.851C314.628 141.033 317.279 142.284 317.877 144.57C319.774 151.869 318.585 159.306 318.3 168.063C330.02 164.152 341.652 154.551 344.768 137.229Z" fill="#EC8C92"/>
<path d="M324.375 386.114H321.543C320.818 386.114 320.47 385.297 321.004 384.843C325.668 380.895 328.511 375.156 328.262 368.814C327.832 358.07 318.341 349.308 306.673 348.891C293.84 348.432 283.281 357.878 283.281 369.594C283.281 375.627 286.083 381.055 290.55 384.843C291.084 385.297 290.742 386.114 290.017 386.114H287.185C285.996 386.114 284.928 386.91 284.812 388C284.673 389.251 285.746 390.314 287.081 390.314H324.485C325.813 390.314 326.887 389.251 326.753 388C326.631 386.91 325.564 386.114 324.375 386.114Z" fill="black"/>
<path d="M306.006 380.275C312.412 380.275 317.604 375.493 317.604 369.594C317.604 363.696 312.412 358.914 306.006 358.914C299.601 358.914 294.409 363.696 294.409 369.594C294.409 375.493 299.601 380.275 306.006 380.275Z" fill="#274D76"/>
<path d="M488.564 386.114H485.733C485.008 386.114 484.66 385.297 485.193 384.843C489.858 380.895 492.701 375.156 492.451 368.814C492.022 358.07 482.53 349.308 470.863 348.891C458.029 348.432 447.47 357.878 447.47 369.594C447.47 375.627 450.273 381.055 454.74 384.843C455.274 385.297 454.931 386.114 454.206 386.114H451.375C450.186 386.114 449.118 386.91 449.002 388C448.863 389.251 449.936 390.314 451.27 390.314H488.674C490.003 390.314 491.076 389.251 490.943 388C490.821 386.91 489.753 386.114 488.564 386.114Z" fill="black"/>
<path d="M383.541 160.005C375.291 149.554 363.403 146.423 353.319 142.107C350.181 140.76 347.326 139.072 344.768 137.229C341.652 154.55 330.014 164.151 318.3 168.057C317.998 177.46 318.741 188.381 325.471 202.267L328.111 208.133L357.323 234.868L398.567 230.808C398.567 230.813 392.934 171.903 383.541 160.005Z" fill="#FFF3A1"/>
<path d="M470.201 380.275C476.607 380.275 481.799 375.493 481.799 369.594C481.799 363.696 476.607 358.914 470.201 358.914C463.796 358.914 458.604 363.696 458.604 369.594C458.604 375.493 463.796 380.275 470.201 380.275Z" fill="#274D76"/>
<path d="M281.604 261.337L180.7 335.816C171.765 342.201 161.682 340.983 151.697 333.423C150.032 332.162 145.217 328.197 145.217 328.197C143.917 326.963 141.782 326.931 140.436 328.122L139.496 328.961C138.8 329.581 138.777 330.607 139.455 331.248L178.165 368.188C178.994 368.979 180.358 369 181.216 368.236C182.104 367.446 183.526 367.339 184.465 368.076C185.545 368.926 185.574 370.421 184.581 371.303L184.5 371.373C183.647 372.137 183.618 373.392 184.448 374.177L196.156 385.365C200.385 389.399 207.249 389.816 212.012 386.327L368.282 270.185L358.988 261.332H281.604V261.337Z" fill="#274D76"/>
<path d="M508.557 355.991H503.829V341.742C503.829 338.852 501.258 336.479 498.114 336.479H496.251C489.881 329.304 480.923 324.704 470.132 324.704H451.508C450.017 324.704 448.578 324.18 447.493 323.24L415.479 294.314C408.831 288.565 400.053 285.359 390.932 285.359H341.977C327.397 285.359 316.275 289.206 306.975 299.545L271.637 336.741V380.264C271.637 380.264 273.116 380.264 275.634 380.264C277.206 380.264 278.616 379.387 279.225 378.046C282.869 370.022 291.125 360.244 305.786 360.698C320.685 361.158 327.177 368.301 329.973 373.826C331.772 377.379 332.317 382.027 332.787 382.753C333.71 384.175 335.398 385.131 337.324 385.131H438.878C441.651 385.131 443.902 383.058 443.902 380.504V377.149C443.902 371.282 446.031 365.539 450.151 361.067C454.05 356.835 460.228 353.074 469.882 353.074C489.376 353.074 494.795 369.466 495.886 372.73C497.615 377.881 499.825 380.371 502.97 380.371H506.068C509.213 380.371 511.777 378.03 511.783 375.14C511.794 360.939 508.557 355.991 508.557 355.991Z" fill="#FFF3A1"/>
<path d="M417.824 373.616H360.665C355.002 373.616 350.401 369.374 350.401 364.165V302.204C350.401 294.783 356.957 288.74 365.016 288.74H392.296C397.883 288.74 403.035 291.321 406.075 295.638L422.772 319.387C424.501 321.844 425.412 324.687 425.412 327.615H424.252C424.252 324.895 423.405 322.25 421.798 319.969L405.1 296.22C402.275 292.202 397.494 289.809 392.296 289.809H365.016C357.596 289.809 351.562 295.371 351.562 302.204V364.165C351.562 368.786 355.646 372.548 360.665 372.548H417.824C421.368 372.548 424.246 369.892 424.246 366.633H425.406C425.412 370.485 422.007 373.616 417.824 373.616Z" fill="black"/>
<path d="M406.458 324.764H367.928C362.127 324.764 357.427 320.49 357.427 315.216V303.029C357.427 298.413 361.546 294.668 366.623 294.668H390.312C394.384 294.668 398.173 296.575 400.337 299.712L411.685 316.167C414.267 319.907 411.308 324.764 406.458 324.764Z" fill="url(#paint0_linear_7007_131054)"/>
<path d="M311.251 324.764H334.626C340.463 324.764 345.191 320.463 345.191 315.158V302.677C345.191 298.253 341.246 294.668 336.384 294.668H331.957C327.235 294.668 320.899 298.216 317.882 301.512C315.173 304.472 307.526 313.71 307.526 313.71C303.326 317.984 304.95 324.764 311.251 324.764Z" fill="url(#paint1_linear_7007_131054)"/>
<path d="M500.499 362.818H496.675C495.851 362.818 495.184 362.199 495.184 361.445C495.184 360.687 495.857 360.072 496.675 360.072H500.499C501.322 360.072 501.99 360.692 501.99 361.445C501.995 362.204 501.322 362.818 500.499 362.818Z" fill="white"/>
<path d="M500.498 363.352H496.675C495.532 363.352 494.604 362.497 494.604 361.444C494.604 360.392 495.532 359.537 496.675 359.537H500.498C501.641 359.537 502.57 360.392 502.57 361.444C502.57 362.497 501.641 363.352 500.498 363.352ZM496.675 360.606C496.17 360.606 495.764 360.985 495.764 361.444C495.764 361.909 496.176 362.283 496.675 362.283H500.498C501.003 362.283 501.409 361.904 501.409 361.444C501.409 360.98 500.997 360.606 500.498 360.606H496.675Z" fill="black"/>
<path d="M505.418 357.728C502.5 357.728 500.109 355.527 500.109 352.839V340.973C500.109 339.872 501.084 338.975 502.279 338.975C506.927 338.975 510.727 342.474 510.727 346.754V352.834C510.727 355.527 508.342 357.728 505.418 357.728Z" fill="white"/>
<path d="M505.418 358.261C502.169 358.261 499.529 355.83 499.529 352.838V340.972C499.529 339.577 500.759 338.439 502.279 338.439C507.257 338.439 511.307 342.169 511.307 346.753V352.833C511.307 355.825 508.667 358.261 505.418 358.261ZM502.279 339.508C501.403 339.508 500.69 340.165 500.69 340.972V352.838C500.69 355.243 502.813 357.193 505.418 357.193C508.023 357.193 510.147 355.237 510.147 352.838V346.758C510.147 342.762 506.619 339.508 502.279 339.508Z" fill="black"/>
<path d="M464.899 329.619H296.781V330.688H464.899V329.619Z" fill="black"/>
<path d="M487.752 336.283H291.386V337.352H487.752V336.283Z" fill="black"/>
<path d="M343.637 361.632H342.476C342.476 351.914 333.89 344.012 323.342 344.012H285.207V342.943H323.342C334.534 342.943 343.637 351.326 343.637 361.632Z" fill="black"/>
<path d="M428.916 301.611C425.192 298.325 420.527 294.259 413.135 294.665C412.364 294.665 411.923 295.482 412.399 296.049L431.951 319.418C433.871 321.716 436.836 323.057 439.986 323.057H447.064C448.741 323.057 434.602 306.627 428.916 301.611Z" fill="url(#paint2_linear_7007_131054)"/>
<path d="M569.568 228.052C589.149 212.771 577.696 168.159 537.136 164.462C538.262 155.042 524.552 139.227 504.269 134.323C475.748 127.425 419.831 138.517 419.842 184.278C419.848 208.967 448.851 227.063 481.625 218.354C486.516 239.859 500.249 248.899 520.038 248.477C513.517 254.151 514.173 267.028 519.487 272.488C519.975 272.99 519.661 273.786 518.936 273.866C501.02 275.886 497.267 292.844 497.307 301.991C497.307 302.509 496.605 302.723 496.251 302.317C493.774 299.517 489.046 299.143 484.607 302.37C478.219 307.002 477.198 315.038 480.772 318.372C487.212 324.377 501.746 319.969 503.237 312.153C503.306 311.79 503.666 311.565 503.968 311.816C510.222 317.09 532.112 327.503 551.826 314.771C563.853 307.002 564.497 291.54 561.277 283.398C560.929 282.516 561.567 281.619 562.565 281.448C602.336 274.62 591.29 226.16 569.568 228.052ZM504.194 264.746C503.254 261.535 496.501 261.93 497.116 266.68C497.725 271.425 505.07 267.722 504.194 264.746ZM488.755 261.385C493.693 259.008 495.793 255.118 494.609 252.345C493.716 250.256 489.591 249.829 484.282 251.031C480.981 251.779 479.246 255.124 479.154 257.389C479.072 259.371 480.151 261.295 482.083 262.176C484.323 263.202 486.551 262.443 488.755 261.385ZM444.952 230.071C436.65 230.691 431.997 233.662 430.222 236.996C424.536 247.692 438.536 263.886 460.663 260.605C483.018 257.293 476.67 227.699 444.952 230.071ZM566.731 153.279C573.328 150.533 579.332 137.935 566.11 133.286C559.142 130.834 553.828 132.063 549.714 133.585C544.853 135.386 541.789 138.004 541.261 141.247C539.266 153.557 560.297 155.956 566.731 153.279ZM536.817 128.045C540.06 126.346 540.664 123.739 539.991 121.468C539.318 119.197 537.38 117.263 532.106 116.911C525.585 116.472 520.828 120.17 520.653 123.236C520.329 129.21 530.331 131.443 536.817 128.045Z" fill="url(#paint3_linear_7007_131054)"/>
<path d="M480.538 288.148L479.399 288.35L487.944 329.321L489.083 329.119L480.538 288.148Z" fill="black"/>
<path d="M249.909 249.675C236.194 249.675 226.644 261.766 225.588 274.364L214.716 366.213C213.492 376.567 205.532 382.396 192.686 383.753C190.546 383.977 184.1 384.41 184.1 384.41C182.232 384.41 180.723 385.805 180.723 387.52V388.727C180.723 389.62 181.507 390.346 182.475 390.346L238.224 390.394C239.414 390.394 240.383 389.507 240.383 388.407C240.383 387.269 241.288 386.254 242.518 386.141C243.928 386.018 245.117 387.039 245.117 388.311V388.412C245.117 389.507 246.08 390.394 247.269 390.4L264.141 390.426C270.227 390.432 275.327 386.173 275.913 380.595L284.476 299.486C285.329 291.376 292.726 285.189 301.574 285.189H383.402C396.705 285.189 407.496 274.776 407.496 262.519V249.67H249.909V249.675Z" fill="#74BAAB"/>
<path d="M256.053 249.677L229.603 201.564C227.99 198.631 224.718 196.777 221.15 196.777H209.378C207.289 196.777 205.955 198.824 206.93 200.517L235.196 249.671C235.196 249.671 237.824 257.648 242.605 257.648H248.61H260.434H304.625C307.277 257.648 309.429 255.666 309.429 253.224V249.671H256.053V249.677Z" fill="#274D76"/>
<path d="M251.946 257.65H240.122C234.691 257.65 229.702 254.888 227.161 250.464L198.436 200.519C197.461 198.82 198.796 196.779 200.884 196.779H212.656C216.23 196.779 219.496 198.628 221.109 201.566L251.946 257.65Z" fill="url(#paint4_linear_7007_131054)"/>
<path d="M425.905 380.113C428.47 380.113 430.622 381.775 431.156 383.992H345.423C345.957 381.775 348.104 380.113 350.674 380.113H425.905ZM425.905 379.045H350.674C347.065 379.045 344.141 381.738 344.141 385.061H432.444C432.438 381.738 429.514 379.045 425.905 379.045Z" fill="black"/>
<path d="M250.965 202.475L254.098 202.465C258.577 202.449 262.876 200.814 266.067 197.923L271.347 193.142C271.555 192.955 271.904 193.115 271.863 193.382L268.747 214.149C268.747 214.149 250.106 218.595 248.406 205.168C248.232 203.742 249.41 202.486 250.965 202.475Z" fill="#EC8C92"/>
<path d="M408.842 221.513L389.488 161.668C385.438 149.909 371.804 143.396 359.028 147.125C343.207 151.747 335.734 167.299 340.753 181.869L351.184 211.565L293.904 189.68C283.913 185.748 271.086 188.206 269.078 198.042C267.657 205.009 255.299 249.584 263.358 249.621H271.822C277.433 248.735 277.827 244.776 279.138 237.461C281.436 237.814 286.344 238.743 290.365 237.028C291.873 238.631 297.872 239.069 302.067 237.461C305.264 238.407 309.429 238.166 311.715 236.964C332.143 247.388 352.351 257.182 363.815 262.204C373.573 266.483 382.769 266.35 392.139 264.287C412.648 258.635 414.075 236.708 408.842 221.513Z" fill="#EC8C92"/>
<path d="M402.286 201.253L389.488 161.668C385.438 149.909 371.804 143.396 359.028 147.125C343.207 151.747 335.734 167.299 340.753 181.869L350.865 210.646C355.019 209.406 384.376 200.858 402.286 201.253Z" fill="#FFF3A1"/>
<path d="M513.854 375.135H503.237C502.79 375.135 502.395 374.879 502.239 374.5L499.489 367.741C499.228 367.1 499.744 366.416 500.487 366.416H513.854C516.006 366.416 517.747 368.019 517.747 370.001V371.55C517.747 373.533 516.006 375.135 513.854 375.135Z" fill="#93B4F6"/>
<path d="M376.73 221.79C376.591 221.742 362.463 216.677 350.953 212.056L351.417 211.078C362.904 215.694 377.008 220.749 377.148 220.797L376.73 221.79Z" fill="black"/>
<path d="M282.215 217.966L279.626 235.117L280.775 235.264L283.364 218.113L282.215 217.966Z" fill="black"/>
<path d="M292.233 236.145L291.2 235.659C291.92 234.361 292.361 232.966 292.517 231.519L293.678 220.924L294.832 221.031L293.672 231.625C293.498 233.207 293.01 234.73 292.233 236.145Z" fill="black"/>
<path d="M304.045 236.578L303.001 236.113C303.651 234.873 304.057 233.548 304.208 232.175L305.264 222.494L306.418 222.601L305.362 232.282C305.2 233.778 304.753 235.221 304.045 236.578Z" fill="black"/>
<path d="M313.572 236.414L312.557 235.896C313.398 234.496 313.914 232.979 314.088 231.386L314.889 224.051L316.043 224.158L315.243 231.493C315.057 233.23 314.494 234.886 313.572 236.414Z" fill="black"/>
<path d="M186.311 337.401L185.463 338.131L211.13 363.436L211.978 362.707L186.311 337.401Z" fill="white"/>
<path d="M277.81 364.289H223.604V365.358H277.81V364.289Z" fill="black"/>
<path d="M300.193 131.108C299.804 131.108 299.41 131.028 299.05 130.873C298.354 130.568 297.832 130.002 297.623 129.313C297.281 128.244 294.391 118.788 298.36 117.479L298.748 118.483C296.526 119.215 297.565 125.332 298.737 129.014C298.859 129.409 299.149 129.73 299.549 129.901C299.944 130.072 300.402 130.077 300.802 129.917L303.396 128.901L303.848 129.885L301.261 130.894C300.918 131.039 300.559 131.108 300.193 131.108Z" fill="black"/>
<path d="M302.16 119.208L301.707 118.225C304.005 117.333 305.681 116.788 308.002 117.269L307.747 118.311C305.826 117.91 304.509 118.3 302.16 119.208Z" fill="black"/>
<path d="M293.219 123.462L292.366 122.735C293.388 121.715 295.575 120.657 297.019 120.262L297.35 121.288C296.051 121.645 294.078 122.607 293.219 123.462Z" fill="black"/>
<path d="M322.251 121.249L321.717 120.298C322.918 119.721 323.667 118.594 323.667 117.349C323.667 115.516 322.048 114.026 320.058 114.026C318.579 114.026 317.267 114.843 316.71 116.104L315.637 115.703C316.368 114.036 318.109 112.957 320.058 112.957C322.686 112.957 324.827 114.929 324.827 117.349C324.821 118.994 323.835 120.49 322.251 121.249Z" fill="black"/>
<path d="M323.87 108.758C323.591 108.256 323.214 107.737 323.208 107.705C319.037 101.305 312.174 95.5719 300.849 99.8782C294.507 102.288 291.56 106.172 290.608 110.665C290.266 112.279 292.598 113.155 293.614 111.803L293.637 111.771C295.447 109.367 307.138 106.145 312.179 106.573C316.85 106.973 322.124 108.373 323.87 108.758Z" fill="#FFF3A1"/>
<path d="M290.986 120.442C290.353 112.716 305.768 106.924 322.489 108.437C315.713 106.871 302.525 102.944 296.091 101.015C293.689 100.294 291.096 100.38 288.758 101.245C279.568 104.638 279.806 116.702 289.129 119.785C289.471 119.897 290.719 120.351 290.986 120.442Z" fill="#274D76"/>
<path d="M298.412 136.615C296.712 136.615 294.96 135.835 294.327 133.944L295.436 133.628C295.998 135.322 297.733 135.696 299.05 135.498C300.5 135.279 302.044 134.302 302.003 132.672C301.997 132.405 302.16 132.164 302.427 132.058C302.682 131.951 302.978 132.004 303.175 132.18C304.649 133.5 307.341 133.137 309.099 132.031C309.725 131.635 311.692 130.177 310.706 128.045L311.773 127.623C312.661 129.536 311.884 131.561 309.754 132.907C307.886 134.088 305.078 134.59 303.088 133.463C302.705 135.237 300.924 136.294 299.241 136.551C298.969 136.594 298.696 136.615 298.412 136.615Z" fill="black"/>
<path d="M317.163 385.057H295.018V386.125H317.163V385.057Z" fill="white"/>
<path d="M481.022 385.057H458.877V386.125H481.022V385.057Z" fill="white"/>
<path d="M487.92 278.682C485.019 279.307 480.587 282.871 477.599 286.397C469.929 295.448 447.488 322.995 447.488 322.995C447.076 323.492 447.105 324.187 447.551 324.657L448.248 325.49C448.584 325.896 449.106 326.131 449.663 326.131H454.067L487.804 281.567L488.941 280.076C489.452 279.398 488.79 278.5 487.92 278.682Z" fill="#FFF3A1"/>
<path d="M347.408 205.223L339.152 181.555C334.76 168.801 340.422 154.798 352.618 148.264L353.204 149.188C341.472 155.476 336.03 168.951 340.26 181.234L348.516 204.903L347.408 205.223Z" fill="black"/>
<path d="M267.361 248.291H262.267V247.222H267.361C269.948 247.222 272.049 245.288 272.049 242.905C272.049 240.522 269.948 238.588 267.361 238.588H262.012V237.52H267.361C270.587 237.52 273.209 239.934 273.209 242.905C273.209 245.87 270.581 248.291 267.361 248.291Z" fill="black"/>
<path d="M267.674 198.723L264.397 214.621L265.537 214.82L268.814 198.922L267.674 198.723Z" fill="black"/>
<defs>
<linearGradient id="paint0_linear_7007_131054" x1="357.427" y1="309.716" x2="412.64" y2="309.716" gradientUnits="userSpaceOnUse">
<stop stop-color="#93B4F6"/>
<stop offset="1" stop-color="#5ACDFF"/>
</linearGradient>
<linearGradient id="paint1_linear_7007_131054" x1="305.198" y1="309.716" x2="345.191" y2="309.716" gradientUnits="userSpaceOnUse">
<stop stop-color="#93B4F6"/>
<stop offset="1" stop-color="#5ACDFF"/>
</linearGradient>
<linearGradient id="paint2_linear_7007_131054" x1="412.202" y1="308.847" x2="447.201" y2="308.847" gradientUnits="userSpaceOnUse">
<stop stop-color="#93B4F6"/>
<stop offset="1" stop-color="#5ACDFF"/>
</linearGradient>
<linearGradient id="paint3_linear_7007_131054" x1="419.842" y1="219.021" x2="589.151" y2="219.021" gradientUnits="userSpaceOnUse">
<stop stop-color="#93B4F6"/>
<stop offset="1" stop-color="#5ACDFF"/>
</linearGradient>
<linearGradient id="paint4_linear_7007_131054" x1="198.111" y1="227.215" x2="251.946" y2="227.215" gradientUnits="userSpaceOnUse">
<stop stop-color="#93B4F6"/>
<stop offset="1" stop-color="#5ACDFF"/>
</linearGradient>
</defs>
</svg>
