<svg width="37" height="36" viewBox="0 0 37 36" fill="none" xmlns="http://www.w3.org/2000/svg">
<path d="M33.3183 1.93359H3.7469C3.03574 1.93359 2.46118 2.50815 2.46118 3.21931V32.7907C2.46118 33.5019 3.03574 34.0765 3.7469 34.0765H33.3183C34.0295 34.0765 34.604 33.5019 34.604 32.7907V3.21931C34.604 2.50815 34.0295 1.93359 33.3183 1.93359ZM31.7112 31.1836H5.35404V4.82645H31.7112V31.1836ZM17.729 13.505H25.1219C25.2987 13.505 25.4433 13.3604 25.4433 13.1836V11.255C25.4433 11.0782 25.2987 10.9336 25.1219 10.9336H17.729C17.5523 10.9336 17.4076 11.0782 17.4076 11.255V13.1836C17.4076 13.3604 17.5523 13.505 17.729 13.505ZM17.729 19.2907H25.1219C25.2987 19.2907 25.4433 19.1461 25.4433 18.9693V17.0407C25.4433 16.864 25.2987 16.7193 25.1219 16.7193H17.729C17.5523 16.7193 17.4076 16.864 17.4076 17.0407V18.9693C17.4076 19.1461 17.5523 19.2907 17.729 19.2907ZM17.729 25.0765H25.1219C25.2987 25.0765 25.4433 24.9318 25.4433 24.755V22.8265C25.4433 22.6497 25.2987 22.505 25.1219 22.505H17.729C17.5523 22.505 17.4076 22.6497 17.4076 22.8265V24.755C17.4076 24.9318 17.5523 25.0765 17.729 25.0765ZM11.6219 12.2193C11.6219 12.6455 11.7912 13.0543 12.0926 13.3557C12.394 13.6571 12.8028 13.8265 13.229 13.8265C13.6553 13.8265 14.0641 13.6571 14.3655 13.3557C14.6669 13.0543 14.8362 12.6455 14.8362 12.2193C14.8362 11.7931 14.6669 11.3843 14.3655 11.0829C14.0641 10.7815 13.6553 10.6122 13.229 10.6122C12.8028 10.6122 12.394 10.7815 12.0926 11.0829C11.7912 11.3843 11.6219 11.7931 11.6219 12.2193ZM11.6219 18.005C11.6219 18.4313 11.7912 18.84 12.0926 19.1414C12.394 19.4428 12.8028 19.6122 13.229 19.6122C13.6553 19.6122 14.0641 19.4428 14.3655 19.1414C14.6669 18.84 14.8362 18.4313 14.8362 18.005C14.8362 17.5788 14.6669 17.17 14.3655 16.8686C14.0641 16.5672 13.6553 16.3979 13.229 16.3979C12.8028 16.3979 12.394 16.5672 12.0926 16.8686C11.7912 17.17 11.6219 17.5788 11.6219 18.005ZM11.6219 23.7907C11.6219 24.217 11.7912 24.6258 12.0926 24.9272C12.394 25.2286 12.8028 25.3979 13.229 25.3979C13.6553 25.3979 14.0641 25.2286 14.3655 24.9272C14.6669 24.6258 14.8362 24.217 14.8362 23.7907C14.8362 23.3645 14.6669 22.9557 14.3655 22.6543C14.0641 22.3529 13.6553 22.1836 13.229 22.1836C12.8028 22.1836 12.394 22.3529 12.0926 22.6543C11.7912 22.9557 11.6219 23.3645 11.6219 23.7907Z" fill="#FF1F93"/>
</svg>
