<svg width="20" height="20" viewBox="0 0 20 20" fill="none" xmlns="http://www.w3.org/2000/svg">
<g clip-path="url(#clip0_3594_120560)">
<path d="M18.1574 0.233068L18.6491 0.724735C19.3266 1.40307 19.2241 2.60557 18.4183 3.41057L8.27909 13.5497L4.99409 14.7514C4.58159 14.9031 4.17992 14.7064 4.09826 14.3139C4.07066 14.1715 4.08365 14.0242 4.13576 13.8889L5.36076 10.5756L15.4716 0.463901C16.2774 -0.341099 17.4799 -0.445266 18.1574 0.233068ZM7.83659 1.2414C7.94602 1.2414 8.05439 1.26296 8.15549 1.30483C8.2566 1.34671 8.34846 1.4081 8.42584 1.48548C8.50323 1.56286 8.56461 1.65473 8.60649 1.75583C8.64837 1.85694 8.66992 1.9653 8.66992 2.07473C8.66992 2.18417 8.64837 2.29253 8.60649 2.39364C8.56461 2.49474 8.50323 2.58661 8.42584 2.66399C8.34846 2.74137 8.2566 2.80276 8.15549 2.84463C8.05439 2.88651 7.94602 2.90807 7.83659 2.90807H4.50326C4.06123 2.90807 3.6373 3.08366 3.32474 3.39622C3.01218 3.70878 2.83659 4.13271 2.83659 4.57473V14.5747C2.83659 15.0168 3.01218 15.4407 3.32474 15.7532C3.6373 16.0658 4.06123 16.2414 4.50326 16.2414H14.5033C14.9453 16.2414 15.3692 16.0658 15.6818 15.7532C15.9943 15.4407 16.1699 15.0168 16.1699 14.5747V11.2414C16.1699 11.0204 16.2577 10.8084 16.414 10.6521C16.5703 10.4959 16.7822 10.4081 17.0033 10.4081C17.2243 10.4081 17.4362 10.4959 17.5925 10.6521C17.7488 10.8084 17.8366 11.0204 17.8366 11.2414V14.5747C17.8366 15.4588 17.4854 16.3066 16.8603 16.9318C16.2352 17.5569 15.3873 17.9081 14.5033 17.9081H4.50326C3.6192 17.9081 2.77135 17.5569 2.14623 16.9318C1.52111 16.3066 1.16992 15.4588 1.16992 14.5747V4.57473C1.16992 3.69068 1.52111 2.84283 2.14623 2.21771C2.77135 1.59259 3.6192 1.2414 4.50326 1.2414H7.83659Z" fill="black"/>
</g>
<defs>
<clipPath id="clip0_3594_120560">
<rect width="20" height="20" fill="white"/>
</clipPath>
</defs>
</svg>
