<svg width="37" height="36" viewBox="0 0 37 36" fill="none" xmlns="http://www.w3.org/2000/svg">
<g clip-path="url(#clip0_3342_4471)">
<path d="M18.5331 0C8.5929 0 0.533081 8.05982 0.533081 18C0.533081 27.9402 8.5929 36 18.5331 36C28.4733 36 36.5331 27.9402 36.5331 18C36.5331 8.05982 28.4733 0 18.5331 0ZM18.5331 32.9464C10.2804 32.9464 3.58665 26.2527 3.58665 18C3.58665 9.74732 10.2804 3.05357 18.5331 3.05357C26.7858 3.05357 33.4795 9.74732 33.4795 18C33.4795 26.2527 26.7858 32.9464 18.5331 32.9464ZM20.4496 17.0679L19.4291 16.8308V11.4348C20.9558 11.6438 21.9 12.6 22.0608 13.7732C22.0808 13.9339 22.2175 14.0504 22.3782 14.0504H24.1822C24.371 14.0504 24.5197 13.8857 24.5036 13.6969C24.2585 11.1937 22.1974 9.58661 19.4451 9.30938V7.99554C19.4451 7.81875 19.3005 7.67411 19.1237 7.67411H17.9947C17.8179 7.67411 17.6733 7.81875 17.6733 7.99554V9.32143C14.8286 9.59866 12.6027 11.1696 12.6027 14.1027C12.6027 16.8188 14.6036 18.1286 16.705 18.6308L17.6974 18.8839V24.6174C15.9215 24.3804 14.925 23.4321 14.7201 22.1545C14.696 22.0018 14.5594 21.8893 14.4027 21.8893H12.5465C12.3576 21.8893 12.209 22.05 12.225 22.2388C12.4058 24.4487 14.0813 26.4817 17.6572 26.7429V28.0045C17.6572 28.1812 17.8018 28.3259 17.9786 28.3259H19.1197C19.2965 28.3259 19.4411 28.1813 19.4411 28.0004L19.4331 26.7268C22.5791 26.4496 24.8291 24.7661 24.8291 21.7446C24.825 18.9562 23.0532 17.7107 20.4496 17.0679ZM17.6933 16.417C17.4683 16.3527 17.2795 16.2924 17.0907 16.2161C15.7326 15.7259 15.1018 14.9344 15.1018 13.9138C15.1018 12.4554 16.2067 11.6237 17.6933 11.4348V16.417ZM19.4291 24.6295V19.2576C19.5536 19.2937 19.6661 19.3219 19.7826 19.346C21.6831 19.9246 22.3219 20.7281 22.3219 21.9616C22.3219 23.5326 21.1407 24.4768 19.4291 24.6295Z" fill="#00FF75"/>
</g>
<defs>
<clipPath id="clip0_3342_4471">
<rect width="36" height="36" fill="white" transform="translate(0.533081)"/>
</clipPath>
</defs>
</svg>
