<svg width="36" height="36" viewBox="0 0 36 36" fill="none" xmlns="http://www.w3.org/2000/svg">
<g clip-path="url(#clip0_7982_80683)">
<path d="M12.2743 7.28569H23.7257L26.1971 5.30855C27.0386 4.63712 27.3529 3.54712 26.9971 2.52997C26.6414 1.51283 25.7171 0.857117 24.6429 0.857117H11.3571C10.2829 0.857117 9.35858 1.51426 9.00286 2.52997C8.64715 3.54569 8.96143 4.63712 9.80143 5.30712L12.2743 7.28569Z" fill="#FFBB38"/>
<path d="M23.9221 9.42853H12.0793C8.17784 13.2585 5.14355 19.9785 5.14355 25.5C5.14355 30.2985 7.68355 35.1428 13.3578 35.1428H23.0007C27.8478 35.1428 30.8578 31.4471 30.8578 25.5C30.8578 19.9785 27.8236 13.2585 23.9221 9.42853ZM17.4578 21.2142H18.5436C20.2136 21.2142 21.5721 22.5728 21.5721 24.2428C21.5721 25.7442 20.4893 26.98 19.0721 27.2314V28.3557C19.0721 28.9471 18.5921 29.4271 18.0007 29.4271C17.4093 29.4271 16.9293 28.9471 16.9293 28.3557V27.2857H15.5007C14.9093 27.2857 14.4293 26.8057 14.4293 26.2142C14.4293 25.6228 14.9093 25.1428 15.5007 25.1428H18.5436C19.0321 25.1428 19.4293 24.7457 19.4293 24.2571C19.4293 23.7542 19.0321 23.3571 18.5436 23.3571H17.4578C15.7878 23.3571 14.4293 21.9985 14.4293 20.3285C14.4293 18.8271 15.5121 17.5914 16.9293 17.34V16.2142C16.9293 15.6228 17.4093 15.1428 18.0007 15.1428C18.5921 15.1428 19.0721 15.6228 19.0721 16.2142V17.2857H20.5007C21.0921 17.2857 21.5721 17.7657 21.5721 18.3571C21.5721 18.9485 21.0921 19.4285 20.5007 19.4285H17.4578C16.9693 19.4285 16.5721 19.8257 16.5721 20.3142C16.5721 20.8171 16.9693 21.2142 17.4578 21.2142Z" fill="#FFBB38"/>
</g>
<defs>
<clipPath id="clip0_7982_80683">
<rect width="34.2857" height="34.2857" fill="white" transform="translate(0.857422 0.857117)"/>
</clipPath>
</defs>
</svg>
