<svg width="36" height="36" viewBox="0 0 36 36" fill="none" xmlns="http://www.w3.org/2000/svg">
<g clip-path="url(#clip0_7982_80721)">
<path d="M32.8366 17.2746H30.7974C30.3332 15.9761 29.5852 14.8134 28.6278 13.863L31.7727 12.4747C32.222 12.2763 32.4681 11.7807 32.3403 11.3066C31.961 9.89917 30.6809 8.86383 29.16 8.86383H26.5662C25.0746 8.86383 23.8151 9.86006 23.4094 11.2262H20.6699C19.641 15.0269 16.1655 17.8311 12.0474 17.8311C9.53365 17.8311 7.25947 16.7859 5.63484 15.1075C5.17728 15.7603 4.80247 16.4759 4.52625 17.2391C3.70573 17.0596 3.03106 16.4105 2.84242 15.5653C2.72162 15.0238 2.18436 14.6825 1.64329 14.8038C1.10188 14.9247 0.760896 15.4615 0.881767 16.0029C1.08721 16.9235 1.60425 17.7593 2.33758 18.3563C2.83948 18.7649 3.42963 19.0493 4.05495 19.192C4.00627 19.5749 3.98109 19.9651 3.98109 20.3612V21.3351C3.98109 25.0265 6.16052 28.206 9.29693 29.6468V31.8604C9.29693 33.0652 10.2736 34.0418 11.4784 34.0418C12.6831 34.0418 13.6598 33.0652 13.6598 31.8604V30.47H21.8316V31.8604C21.8316 33.0652 22.8083 34.0418 24.0131 34.0418C25.2178 34.0418 26.1945 33.0652 26.1945 31.8604V29.5617C28.4878 28.4461 30.244 26.3913 30.9679 23.8945H32.8364C34.1104 23.8945 35.1432 22.8569 35.1432 21.5768V19.5922C35.1434 18.3123 34.1106 17.2746 32.8366 17.2746ZM25.4247 17.8546C24.872 17.8546 24.4239 17.4065 24.4239 16.8537C24.4239 16.3009 24.8719 15.8529 25.4247 15.8529C25.9775 15.8529 26.4256 16.3009 26.4256 16.8537C26.4256 17.4065 25.9775 17.8546 25.4247 17.8546Z" fill="#16DBCC"/>
<path d="M12.0476 1.95813C8.22984 1.95813 5.12402 5.06783 5.12402 8.8901C5.12402 12.7124 8.22991 15.8221 12.0476 15.8221C15.8652 15.8221 18.971 12.7124 18.971 8.8901C18.971 5.0677 15.8651 1.95813 12.0476 1.95813ZM11.4046 7.83092H12.6905C14.1409 7.83092 15.3209 9.01177 15.3209 10.4632C15.3209 11.7918 14.3319 12.893 13.052 13.07V13.4472C13.052 14.002 12.6023 14.4517 12.0476 14.4517C11.4928 14.4517 11.0431 14.002 11.0431 13.4472V13.0954H10.7868C9.67708 13.0954 8.77413 12.1921 8.77413 11.0816C8.77413 10.5269 9.22386 10.0772 9.7786 10.0772C10.3333 10.0772 10.7831 10.5269 10.7831 11.0816L12.6904 11.0865C13.0331 11.0865 13.3119 10.8068 13.3119 10.4632C13.3119 10.1195 13.0331 9.83986 12.6904 9.83986H11.4046C9.95411 9.83986 8.77413 8.65907 8.77413 7.20761C8.77413 5.87897 9.76313 4.77774 11.0431 4.60082V4.33303C11.0431 3.77829 11.4928 3.32856 12.0476 3.32856C12.6023 3.32856 13.052 3.77829 13.052 4.33303V4.57531H13.3082C14.418 4.57531 15.3209 5.47872 15.3209 6.58913C15.3209 7.14386 14.8712 7.5936 14.3165 7.5936C13.7617 7.5936 13.312 7.14386 13.312 6.58913C13.312 6.58752 13.3119 6.58685 13.3119 6.58685L11.4046 6.58424C11.0619 6.58424 10.7831 6.86389 10.7831 7.20761C10.7831 7.55128 11.0619 7.83092 11.4046 7.83092Z" fill="#16DBCC"/>
</g>
<defs>
<clipPath id="clip0_7982_80721">
<rect width="34.2857" height="34.2857" fill="white" transform="translate(0.857422 0.857117)"/>
</clipPath>
</defs>
</svg>
