<svg width="20" height="20" viewBox="0 0 20 20" fill="none" xmlns="http://www.w3.org/2000/svg">
<path d="M17.7402 2.76001C18.5472 3.56991 19.0004 4.66666 19.0004 5.81001C19.0004 6.95336 18.5472 8.05011 17.7402 8.86001L16.2102 10.38C15.0902 11.5 13.5102 11.85 12.0702 11.47L14.6902 8.86001L15.4502 8.09001L16.2102 7.33001C17.0502 6.49001 17.0502 5.13001 16.2102 4.29001C16.0119 4.08803 15.7754 3.9276 15.5144 3.81808C15.2534 3.70856 14.9732 3.65216 14.6902 3.65216C14.4072 3.65216 14.127 3.70856 13.866 3.81808C13.605 3.9276 13.3685 4.08803 13.1702 4.29001L12.4002 5.05001L9.02019 8.43001C8.65019 6.99001 9.00019 5.41001 10.1202 4.29001L11.6402 2.76001C12.4501 1.95297 13.5468 1.49982 14.6902 1.49982C15.8335 1.49982 16.9303 1.95297 17.7402 2.76001ZM8.59019 13.43L13.9302 8.09001C14.3502 7.67001 14.3502 6.99001 13.9302 6.57001C13.4902 6.14001 12.8002 6.18001 12.4002 6.57001L7.07019 11.91C6.65019 12.33 6.65019 13.01 7.07019 13.43C7.51019 13.86 8.20019 13.82 8.59019 13.43ZM7.83019 15.72L11.9702 11.57C12.3502 13.01 12.0002 14.59 10.8802 15.71L9.36019 17.24C8.55029 18.0471 7.45355 18.5002 6.31019 18.5002C5.16684 18.5002 4.07009 18.0471 3.26019 17.24C2.45315 16.4301 2 15.3334 2 14.19C2 13.0467 2.45315 11.9499 3.26019 11.14L4.79019 9.62001C5.91019 8.50001 7.49019 8.15001 8.93019 8.52001L4.79019 12.67C3.94019 13.51 3.94019 14.87 4.79019 15.72C5.63019 16.56 6.99019 16.56 7.83019 15.72Z" fill="black"/>
</svg>
