<svg width="24" height="24" viewBox="0 0 24 24" fill="none" xmlns="http://www.w3.org/2000/svg">
<path d="M2.75 2C2.75 1.80109 2.67098 1.61032 2.53033 1.46967C2.38968 1.32902 2.19891 1.25 2 1.25C1.80109 1.25 1.61032 1.32902 1.46967 1.46967C1.32902 1.61032 1.25 1.80109 1.25 2V12.057C1.25 14.366 1.25 16.175 1.44 17.587C1.634 19.031 2.04 20.171 2.934 21.066C3.829 21.961 4.969 22.366 6.414 22.56C7.825 22.75 9.634 22.75 11.943 22.75H22C22.1989 22.75 22.3897 22.671 22.5303 22.5303C22.671 22.3897 22.75 22.1989 22.75 22C22.75 21.8011 22.671 21.6103 22.5303 21.4697C22.3897 21.329 22.1989 21.25 22 21.25H12C9.622 21.25 7.914 21.248 6.614 21.074C5.335 20.902 4.564 20.574 3.994 20.005C3.425 19.435 3.098 18.665 2.926 17.386C2.752 16.086 2.75 14.378 2.75 12V2Z" fill="black"/>
<path d="M19.5877 7.46599C19.6511 7.38907 19.6984 7.3003 19.7271 7.20486C19.7557 7.10942 19.7651 7.00923 19.7546 6.91014C19.744 6.81105 19.7139 6.71505 19.6659 6.62775C19.6178 6.54044 19.5529 6.46358 19.4748 6.40166C19.3968 6.33974 19.3071 6.29399 19.2112 6.2671C19.1152 6.2402 19.0149 6.23269 18.916 6.24501C18.8171 6.25733 18.7217 6.28923 18.6353 6.33885C18.5489 6.38847 18.4732 6.45481 18.4127 6.53399L15.2947 10.46C15.0497 10.769 14.8887 10.97 14.7557 11.116C14.6257 11.259 14.5657 11.299 14.5377 11.314C14.4338 11.3694 14.3182 11.3996 14.2004 11.402C14.0826 11.4044 13.9659 11.3791 13.8597 11.328C13.8317 11.315 13.7697 11.278 13.6327 11.141C13.4947 11.001 13.3247 10.806 13.0667 10.508L13.0497 10.49C12.8127 10.216 12.6097 9.98199 12.4297 9.80199C12.2458 9.60533 12.0293 9.44192 11.7897 9.31899C11.4709 9.16588 11.1205 9.09007 10.767 9.09772C10.4134 9.10536 10.0666 9.19624 9.75473 9.36299C9.52019 9.49596 9.31043 9.6685 9.13473 9.87299C8.96473 10.061 8.77173 10.303 8.54573 10.588L5.41273 14.534C5.34715 14.6106 5.29768 14.6996 5.26729 14.7958C5.2369 14.8919 5.22621 14.9932 5.23586 15.0936C5.24551 15.1939 5.2753 15.2913 5.32345 15.3799C5.37161 15.4685 5.43713 15.5465 5.5161 15.6092C5.59507 15.6719 5.68588 15.718 5.78309 15.7448C5.8803 15.7716 5.98191 15.7785 6.08186 15.7652C6.1818 15.7518 6.27802 15.7184 6.36477 15.667C6.45152 15.6156 6.52701 15.5472 6.58673 15.466L9.70573 11.54C9.95073 11.231 10.1117 11.03 10.2437 10.884C10.3737 10.741 10.4337 10.701 10.4617 10.686C10.5657 10.6306 10.6813 10.6004 10.7991 10.598C10.9169 10.5956 11.0336 10.6209 11.1397 10.672C11.1687 10.685 11.2307 10.722 11.3667 10.859C11.5057 10.999 11.6747 11.194 11.9337 11.492L11.9497 11.51C12.1877 11.784 12.3897 12.018 12.5697 12.198C12.7547 12.385 12.9587 12.56 13.2097 12.681C13.5285 12.8341 13.8789 12.9099 14.2325 12.9023C14.5861 12.8946 14.9329 12.8037 15.2447 12.637C15.479 12.5036 15.6887 12.3312 15.8647 12.127C16.0347 11.939 16.2277 11.697 16.4547 11.412L19.5877 7.46599Z" fill="black"/>
</svg>
