<svg width="36" height="36" viewBox="0 0 36 36" fill="none" xmlns="http://www.w3.org/2000/svg">
<g clip-path="url(#clip0_7982_80707)">
<path d="M29.5801 0.857117C27.619 0.857117 26.0293 2.44685 26.0293 4.4079V15.0027H32.1264C32.6811 15.0027 33.1309 14.5529 33.1309 13.9982V4.4079C33.1309 2.44685 31.5411 0.857117 29.5801 0.857117V0.857117Z" fill="#FF82AC"/>
<path d="M13.0025 26.1027C13.0025 20.0349 17.9386 15.0373 24.0876 15.054V4.84055C24.0876 3.31263 24.6628 1.91669 25.6075 0.857117H7.8911C5.1228 0.857117 2.87012 3.1098 2.87012 5.8781V34.1203C2.87012 35.0239 3.9755 35.4678 4.60047 34.8147L5.88552 33.4727L7.24289 34.8308C7.63463 35.2225 8.27079 35.2225 8.6632 34.8308L9.94958 33.5451L11.2487 34.8335C11.6404 35.2218 12.2719 35.2218 12.6636 34.8335L13.9835 33.525L15.304 34.8335C15.6951 35.2218 16.3259 35.2218 16.7177 34.8341L16.9735 34.581C14.4829 32.4987 13.0025 29.4198 13.0025 26.1027ZM10.996 8.95979H12.9784V6.97738C12.9784 6.42265 13.4281 5.97292 13.9828 5.97292C14.5376 5.97292 14.9873 6.42265 14.9873 6.97738V8.95979H16.9697C17.5244 8.95979 17.9742 9.40953 17.9742 9.96426C17.9742 10.519 17.5244 10.9687 16.9697 10.9687H14.9873V12.9511C14.9873 13.5059 14.5376 13.9556 13.9828 13.9556C13.4281 13.9556 12.9784 13.5059 12.9784 12.9511V10.9687H10.996C10.4412 10.9687 9.9915 10.519 9.9915 9.96426C9.9915 9.40953 10.4412 8.95979 10.996 8.95979ZM7.95599 15.9944H14.7194C15.2742 15.9944 15.7239 16.4441 15.7239 16.9989C15.7239 17.5536 15.2742 18.0033 14.7194 18.0033H7.95599C7.40126 18.0033 6.95152 17.5536 6.95152 16.9989C6.95152 16.4441 7.40126 15.9944 7.95599 15.9944ZM11.3075 26.0323H7.94929C7.39456 26.0323 6.94483 25.5826 6.94483 25.0279C6.94483 24.4731 7.39456 24.0234 7.94929 24.0234H11.3075C11.8623 24.0234 12.312 24.4731 12.312 25.0279C12.312 25.5826 11.8623 26.0323 11.3075 26.0323ZM11.9773 22.0212H7.95257C7.39784 22.0212 6.94811 21.5714 6.94811 21.0167C6.94811 20.462 7.39784 20.0122 7.95257 20.0122H11.9773C12.532 20.0122 12.9817 20.462 12.9817 21.0167C12.9817 21.5714 12.532 22.0212 11.9773 22.0212Z" fill="#FF82AC"/>
<path d="M24.0519 17.0625C19.0671 17.0625 15.0117 21.1179 15.0117 26.1027C15.0117 31.0874 19.0671 35.1429 24.0519 35.1429C29.0367 35.1429 33.0921 31.0874 33.0921 26.1027C33.0921 21.1179 29.0367 17.0625 24.0519 17.0625ZM25.0595 29.9711V30.0666C25.0595 30.6214 24.6098 31.0711 24.055 31.0711C23.5003 31.0711 23.0506 30.6214 23.0506 30.0666V30.0496C22.6006 29.9424 22.1832 29.7652 21.8522 29.5486C21.3879 29.2448 21.2578 28.6223 21.5615 28.1581C21.8652 27.6937 22.4877 27.5637 22.952 27.8674C23.3631 28.1364 24.0408 28.2385 24.3739 28.0818C24.5897 27.9802 24.7567 27.7635 24.7799 27.5547C24.8297 27.1099 24.1329 26.8618 23.7168 26.6975C23.0872 26.4488 22.3036 26.1393 21.8487 25.3181C21.2003 24.1476 21.7682 22.6043 23.0506 22.0765V22.0259C23.0506 21.4712 23.5003 21.0214 24.055 21.0214C24.6043 21.0214 25.0499 21.4625 25.0587 22.0096C25.4202 22.1226 25.7533 22.3034 26.02 22.5494C26.4278 22.9255 26.4534 23.5609 26.0773 23.9687C25.7012 24.3766 25.0657 24.4021 24.6579 24.026C24.4927 23.8736 23.9835 23.8121 23.7621 23.9607C23.6133 24.0607 23.555 24.2525 23.606 24.3445C23.8181 24.7274 24.9291 24.8587 25.7698 25.5139C27.4873 26.8522 26.8897 29.2691 25.0595 29.9711Z" fill="#FF82AC"/>
</g>
<defs>
<clipPath id="clip0_7982_80707">
<rect width="34.2857" height="34.2857" fill="white" transform="translate(0.857422 0.857117)"/>
</clipPath>
</defs>
</svg>
