<svg width="35" height="36" viewBox="0 0 35 36" fill="none" xmlns="http://www.w3.org/2000/svg">
<path d="M20.5657 17.8206C25.2425 17.8206 29.0468 14.0156 29.0468 9.33884C29.0468 4.66204 25.2425 0.857117 20.5657 0.857117C15.8889 0.857117 12.084 4.66204 12.084 9.33884C12.084 14.0156 15.8889 17.8206 20.5657 17.8206ZM19.5612 4.35333V4.12298C19.5612 3.56784 20.0106 3.11851 20.5657 3.11851C21.1202 3.11851 21.5702 3.56784 21.5702 4.12298V4.35467C22.7655 4.61115 23.6648 5.67588 23.6648 6.94687C23.6648 7.50133 23.2148 7.95133 22.6604 7.95133C22.1052 7.95133 21.6559 7.50133 21.6559 6.94687C21.6559 6.59263 21.3673 6.30401 21.013 6.30401H20.1124C19.7581 6.30401 19.4695 6.59263 19.4695 6.94687C19.4695 7.14977 19.5666 7.34263 19.73 7.46316L20.5657 8.08192L22.5961 9.5846C23.263 10.0781 23.6648 10.8676 23.6702 11.698V11.7074C23.6749 12.4159 23.4037 13.0842 22.9054 13.5884C22.5358 13.9627 22.0737 14.2139 21.5702 14.3197V14.5547C21.5702 15.1098 21.1202 15.5592 20.5657 15.5592C20.0106 15.5592 19.5612 15.1098 19.5612 14.5547V14.323C19.0711 14.2185 18.6204 13.9775 18.2561 13.6172C17.7519 13.1197 17.4719 12.4554 17.4679 11.7469C17.4646 11.1924 17.9112 10.7397 18.4657 10.7364H18.4724C19.0242 10.7364 19.4735 11.1824 19.4769 11.7348C19.4782 12.0815 19.7571 12.3737 20.1231 12.3737C20.6781 12.3703 20.4714 12.3715 21.0224 12.3683C21.3789 12.3655 21.664 12.0761 21.6612 11.7208V11.7114C21.6599 11.5105 21.5628 11.319 21.4008 11.1991L20.5657 10.581L18.5347 9.07835C17.8624 8.58013 17.4606 7.78325 17.4606 6.94687C17.4606 5.6732 18.3626 4.6078 19.5612 4.35333Z" fill="#396AFF"/>
<path d="M6.823 22.6469C6.56552 22.2005 5.99358 22.0452 5.54445 22.3043L0.819565 25.0317C0.372175 25.2907 0.218692 25.8629 0.476975 26.3109L5.30605 34.6749C5.56454 35.1221 6.13641 35.2758 6.58461 35.0175L11.3095 32.2893C11.7575 32.031 11.9104 31.4588 11.6521 31.0108L6.823 22.6469Z" fill="#396AFF"/>
<path d="M33.8963 20.9773C33.4416 20.3459 32.5616 20.2032 31.9308 20.6579C30.017 22.0367 26.342 24.6845 26.05 24.8954C25.9154 25.0099 25.7741 25.1137 25.6268 25.2055C25.0489 25.5691 24.3786 25.7633 23.6788 25.7633H18.8674C18.3129 25.7633 17.8629 25.314 17.8629 24.7588C17.8629 24.203 18.3136 23.7544 18.8674 23.7544H24.013C24.769 23.7544 25.3744 23.1249 25.3429 22.3675C25.3134 21.649 24.7 21.0918 23.9808 21.0918H20.0641C19.7989 20.8113 19.5083 20.5541 19.1969 20.3244C18.1261 19.5349 16.8029 19.0682 15.3705 19.0682C12.8239 19.0682 10.2899 20.6726 9.23926 22.8142L13.3482 29.9305H21.0558C22.5692 29.9305 24.0598 29.5434 25.3717 28.7887C25.8264 28.5276 26.3132 28.2135 26.8409 27.8345C29.052 26.2461 33.5728 22.9461 33.5762 22.9441C34.2083 22.4901 34.3516 21.6088 33.8963 20.9773Z" fill="#396AFF"/>
</svg>
