<svg width="37" height="36" viewBox="0 0 37 36" fill="none" xmlns="http://www.w3.org/2000/svg">
<path d="M32.4538 28.1039C31.6959 26.3086 30.596 24.6779 29.2154 23.3026C27.839 21.9233 26.2086 20.8236 24.4141 20.0642C24.398 20.0561 24.3819 20.0521 24.3659 20.0441C26.869 18.2361 28.4962 15.291 28.4962 11.9682C28.4962 6.46373 24.0364 2.00391 18.5319 2.00391C13.0275 2.00391 8.56764 6.46373 8.56764 11.9682C8.56764 15.291 10.1949 18.2361 12.698 20.0481C12.6819 20.0561 12.6659 20.0602 12.6498 20.0682C10.8498 20.8276 9.2346 21.9164 7.84844 23.3066C6.46915 24.683 5.36944 26.3134 4.61005 28.1079C3.86402 29.8647 3.46167 31.7483 3.42478 33.6566C3.42371 33.6995 3.43123 33.7421 3.4469 33.7821C3.46258 33.822 3.48608 33.8584 3.51604 33.8891C3.54599 33.9198 3.58179 33.9442 3.62132 33.9608C3.66085 33.9775 3.70332 33.9861 3.74621 33.9861H6.15693C6.33371 33.9861 6.47434 33.8454 6.47835 33.6727C6.55871 30.5709 7.80425 27.666 10.006 25.4642C12.2842 23.1861 15.3096 21.9325 18.5319 21.9325C21.7542 21.9325 24.7797 23.1861 27.0578 25.4642C29.2596 27.666 30.5051 30.5709 30.5855 33.6727C30.5895 33.8494 30.7301 33.9861 30.9069 33.9861H33.3176C33.3605 33.9861 33.403 33.9775 33.4425 33.9608C33.4821 33.9442 33.5179 33.9198 33.5478 33.8891C33.5778 33.8584 33.6013 33.822 33.6169 33.7821C33.6326 33.7421 33.6401 33.6995 33.6391 33.6566C33.5989 31.7361 33.2011 29.8678 32.4538 28.1039ZM18.5319 18.8789C16.6877 18.8789 14.952 18.1597 13.6462 16.8539C12.3404 15.5481 11.6212 13.8124 11.6212 11.9682C11.6212 10.124 12.3404 8.38828 13.6462 7.08248C14.952 5.77667 16.6877 5.05748 18.5319 5.05748C20.3761 5.05748 22.1118 5.77667 23.4176 7.08248C24.7234 8.38828 25.4426 10.124 25.4426 11.9682C25.4426 13.8124 24.7234 15.5481 23.4176 16.8539C22.1118 18.1597 20.3761 18.8789 18.5319 18.8789Z" fill="#0F5FC2"/>
</svg>
